<svg width="164" height="146" viewBox="0 0 164 146" fill="none" xmlns="http://www.w3.org/2000/svg">
<g clip-path="url(#clip0_187_1137)">
<path d="M163 96.8901C163.36 110.35 149.9 123.35 134.91 132.17C129.66 135.27 124.25 137.83 119.15 139.74C102.75 145.87 88.9503 145.4 78.7603 145.08C78.6103 145.06 78.4803 145.06 78.3303 145.06C78.0103 145.04 77.6703 145.04 77.3503 145.02C60.4803 144.32 43.3903 140.68 28.3703 132.81C27.9703 132.6 27.5803 132.39 27.1803 132.17C14.2303 125.24 1.30032 115.35 0.0903172 99.5801C-0.509683 91.8201 1.94032 83.9301 6.60032 77.7201C11.6403 71.0201 19.0003 67.2601 25.6503 62.4101C30.3303 58.9901 32.4103 54.0501 34.6003 48.9101C36.1303 45.3401 37.7903 41.8101 39.7003 38.4201C40.7603 36.5701 41.8503 34.7801 43.0603 33.0201C51.5003 20.7301 65.4603 11.7301 80.2603 9.6101C95.6803 7.4201 110.4 14.6101 120.5 26.1801C126.6 33.1401 130.79 41.7501 132.6 50.8301C134.09 58.2501 132.56 67.5301 138.34 73.3501C145.04 80.0901 154.67 78.0901 160.12 86.4901C162.84 90.6601 162.95 95.0201 163.01 96.8701L163 96.8901Z" fill="#DFEAF7"/>
<path d="M108.699 69.9701C122.399 58.2301 126.469 36.8001 117.099 23.0101C111.699 15.0601 103.369 11.9201 99.2792 10.7101C97.5792 8.23008 93.2692 2.73008 85.9692 0.730084C73.2392 -2.76992 62.1992 7.34008 60.6392 8.77008C46.0192 22.1501 40.5092 54.8201 60.4792 70.7801C73.4492 81.1501 94.5892 82.0501 108.689 69.9701H108.699Z" fill="#002D53"/>
<path d="M91.1395 50.49H75.4395V69.86H91.1395V50.49Z" fill="#FFB3AE"/>
<path d="M91.1395 50.49V59.81C82.8495 60.41 78.1195 59.34 75.4395 57.7V50.49H91.1395Z" fill="#FF7A72"/>
<path d="M106.66 38.8602C105.16 42.8502 101.52 45.1702 98.5197 44.0402C95.5197 42.9102 94.3097 38.7702 95.8097 34.7802C97.3097 30.7902 100.95 28.4702 103.95 29.6002C106.95 30.7302 108.16 34.8702 106.66 38.8602Z" fill="#FFB3AE"/>
<path d="M62.4494 38.8602C63.9494 42.8502 67.5894 45.1702 70.5894 44.0402C73.5894 42.9102 74.7994 38.7702 73.2994 34.7802C71.7994 30.7902 68.1594 28.4702 65.1594 29.6002C62.1594 30.7302 60.9494 34.8702 62.4494 38.8602Z" fill="#FFB3AE"/>
<path d="M99.1594 35.1701C101.689 42.1201 93.7094 55.9901 83.5094 55.9901C74.8694 55.9901 67.8594 46.6701 67.8594 35.1701C67.8594 22.6401 80.4294 12.8201 83.5094 14.3501C84.7494 14.9601 83.7294 17.0501 84.8394 20.6201C87.4994 29.1501 96.9994 29.2501 99.1494 35.1701H99.1594Z" fill="#FFB3AE"/>
<path d="M127.38 124.29H37.7695V106.84C37.7695 82.1 57.8295 62.04 82.5695 62.04C107.32 62.04 127.37 82.1 127.37 106.84V124.29H127.38Z" fill="#FA9856"/>
<path d="M140.731 96.4399H116.051V124.53H140.731V96.4399Z" fill="#32BFA3"/>
<path d="M148.581 110.58C148.581 113.03 146.591 115.01 144.141 115.01C142.761 115.01 141.531 114.38 140.721 113.4V119.36C141.771 119.78 142.931 120 144.141 120C149.351 120 153.571 115.79 153.571 110.59C153.571 105.39 149.351 101.16 144.141 101.16C142.941 101.16 141.781 101.38 140.721 101.8V107.76C141.531 106.78 142.761 106.15 144.141 106.15C146.591 106.15 148.581 108.13 148.581 110.59V110.58Z" fill="#32BFA3"/>
<path d="M158.72 124.53H8.32031V132.16H158.72V124.53Z" fill="#D18C7E"/>
<path d="M34.1301 107.23C33.6101 93.9 33.8001 77.1 38.2201 76.15C38.3701 76.12 38.9001 76.01 39.4301 76.29C43.0101 78.13 38.8801 93.14 34.1301 107.24V107.23Z" fill="#40C1B0"/>
<path d="M34.1299 107.23C27.6099 95.8 24.4699 93.73 22.8399 94.24C22.2199 94.43 21.7799 95.01 21.6199 95.54C20.4899 99.23 31.2499 105.58 34.1399 107.23H34.1299Z" fill="#40C1B0"/>
<path d="M34.1299 107.23C34.1299 107.23 40.2099 89.7299 44.4099 90.7699C48.6099 91.8099 34.1299 107.23 34.1299 107.23Z" fill="#40C1B0"/>
<path d="M24.5901 124.29H41.2301L42.7001 103.92H23.1201L24.5901 124.29Z" fill="#FF828A"/>
<path d="M113.01 79H52.1304C50.0482 79 48.3604 80.6879 48.3604 82.77V120.77C48.3604 122.852 50.0482 124.54 52.1304 124.54H113.01C115.092 124.54 116.78 122.852 116.78 120.77V82.77C116.78 80.6879 115.092 79 113.01 79Z" fill="white"/>
<path d="M82.57 108.45C85.4861 108.45 87.85 106.086 87.85 103.17C87.85 100.254 85.4861 97.8899 82.57 97.8899C79.654 97.8899 77.29 100.254 77.29 103.17C77.29 106.086 79.654 108.45 82.57 108.45Z" fill="#DFEAF7"/>
<path d="M134.92 132.16C129.67 135.26 124.26 137.82 119.16 139.73C102.76 145.86 88.9604 145.39 78.7704 145.07C78.6204 145.05 78.4904 145.05 78.3404 145.05C78.0204 145.03 77.6804 145.03 77.3604 145.01C60.4904 144.31 43.4004 140.67 28.3804 132.8C27.9804 132.59 27.5904 132.38 27.1904 132.16H134.93H134.92Z" fill="#BC7F72"/>
</g>
<defs>
<clipPath id="clip0_187_1137">
<rect width="163.01" height="145.24" fill="white"/>
</clipPath>
</defs>
</svg>
