<svg width="200" height="135" viewBox="0 0 200 135" fill="none" xmlns="http://www.w3.org/2000/svg">
<g clip-path="url(#clip0_188_691)">
<path d="M190.71 95.7901C183.74 108.18 172.89 116.86 160.02 122.81C159.96 122.83 159.9 122.87 159.84 122.9C142.65 130.8 121.89 133.86 101.87 134.44C82.5497 135.01 63.9397 133.26 49.8997 131.31C35.3197 129.28 25.6597 127.03 25.2997 126.92C24.2297 126.59 23.1997 126.19 23.1997 126.19C22.4297 125.91 21.6697 125.58 20.9297 125.24C20.9097 125.24 20.8897 125.23 20.8697 125.22L20.6497 125.11C14.7597 122.38 9.84968 118.17 6.27968 113.05C1.94968 106.82 -0.360321 99.2701 0.039679 91.3801C0.469679 83.1401 2.35968 74.0401 7.09968 65.2101C17.0097 46.7101 39.5897 28.9901 62.5197 27.3901C71.2397 26.7801 83.4597 27.8401 95.8297 20.1501C98.6697 18.3801 99.6097 17.7601 102.25 16.0801C106.03 13.6801 125.42 1.39006 148.55 3.98006C154.22 4.62006 173.15 7.60006 186.68 23.4501C205.16 45.0901 201.35 76.8501 190.7 95.7901H190.71Z" fill="#DFEAF7"/>
<path d="M165.45 111.89C163.45 116.35 161.53 120.08 160.02 122.81C159.96 122.83 159.9 122.87 159.84 122.9C142.65 130.8 121.89 133.86 101.87 134.44C95.2995 134.49 89.2195 134.2 83.7595 133.71C74.8695 128.21 70.8695 119.81 72.8695 113.98C73.3995 112.42 74.3795 111.04 75.8095 109.96C89.0995 99.8499 110.5 99.5799 114.95 88.0299C117.91 80.3299 125.36 58.8499 129.99 45.3999C131.42 41.2499 141.94 30.2299 154.49 30.8099C164.93 31.2799 171.97 39.9899 172.66 40.8699C188.3 60.7799 171.28 98.8499 165.44 111.89H165.45Z" fill="#32BFA3"/>
<path d="M145.929 117.99C145.929 117.99 145.879 117.99 145.849 117.99L126.969 115.49C126.619 115.44 126.379 115.13 126.429 114.78C126.479 114.44 126.769 114.2 127.139 114.24L146.019 116.74C146.369 116.79 146.609 117.1 146.559 117.45C146.519 117.77 146.249 118 145.939 118L145.929 117.99Z" fill="#002D53"/>
<path d="M44.7998 78.24C44.1498 61.59 44.3898 40.6 49.9098 39.41C50.0998 39.37 50.7598 39.24 51.4198 39.58C55.8898 41.88 50.7298 60.63 44.7998 78.24Z" fill="#40C1B0"/>
<path d="M44.7999 78.2401C36.6599 63.9701 32.7299 61.3701 30.6899 62.0101C29.9199 62.2501 29.3599 62.9701 29.1599 63.6301C27.7499 68.2401 41.1899 76.1701 44.7999 78.2401Z" fill="#40C1B0"/>
<path d="M44.7998 78.24C44.7998 78.24 52.3998 56.38 57.6498 57.68C62.8998 58.98 44.7998 78.24 44.7998 78.24Z" fill="#40C1B0"/>
<path d="M54.7794 101.73H33.9894L32.1494 76.28H56.6194L54.7794 101.73Z" fill="#FF828A"/>
<path d="M101.87 28.3299C101.87 28.3299 92.99 26.5999 94.94 17.6099C96.89 8.61989 102.73 8.72989 102.73 8.72989C102.73 8.72989 112.36 -6.10011 130.34 2.87989C148.31 11.8699 135.1 24.6399 145.17 33.1899C155.24 41.7399 170.12 81.1099 137.78 77.3899L101.87 28.3199V28.3299Z" fill="#002D53"/>
<path d="M126.4 118.19C125.5 119.7 122.29 124.97 116.81 128.29C100.6 138.12 75.9395 123.98 67.8695 119.35C60.4795 115.11 54.9795 110.6 51.4195 107.36L25.2895 126.92C23.7995 126.46 22.3395 125.9 20.9195 125.24C20.8995 125.24 20.8795 125.23 20.8595 125.22L20.6395 125.11C14.7495 122.38 9.83953 118.17 6.26953 113.05C13.9695 104.42 33.0695 84.2198 43.7395 83.6598C57.3095 82.9398 92.3495 101.52 92.3495 101.52L130.84 100.22C130.97 103.35 130.86 110.69 126.41 118.2L126.4 118.19Z" fill="#004070"/>
<path d="M121.139 49.5499C121.139 49.5499 105.699 58.9299 106.419 62.5399L107.139 66.1499L92.3389 101.51C97.2489 103.18 103.269 104.81 110.239 105.84C117.999 106.99 124.879 107.09 130.459 106.8C132.659 99.7799 146.349 55.2599 134.489 48.6799C133.519 48.1399 132.319 47.8299 130.829 47.8699L121.139 49.5499Z" fill="#FA9856"/>
<path d="M76.7792 79.8498L65.1892 75.1098C64.4292 74.7998 63.9092 73.8598 63.9092 72.7798V43.0698C63.9092 41.4398 65.0792 40.2698 66.2292 40.7398L77.8192 45.4798C78.5792 45.7898 79.0992 46.7298 79.0992 47.8098V77.5198C79.0992 79.1498 77.9292 80.3198 76.7792 79.8498Z" fill="white"/>
<path d="M132.509 71.0398C126.339 78.9598 120.069 84.3698 114.949 88.0198C113.459 89.0898 112.059 89.9998 110.799 90.7898C102.439 95.9998 99.1093 95.8798 97.8093 95.7498C85.9793 94.5098 80.4693 74.8298 80.1793 73.7598L72.1993 73.2298C72.1993 73.2298 67.1593 67.2598 68.1793 65.2798C69.2093 63.2998 71.7393 62.4998 71.7393 62.4998C71.7393 62.4998 66.1793 60.1598 68.9593 58.3198C71.7393 56.4698 79.3593 59.8398 79.3593 59.8398C79.3593 59.8398 78.5593 55.1698 82.8193 57.3498C87.0693 59.5098 89.1593 71.9998 89.1593 71.9998C92.9993 79.9298 99.6393 79.2698 106.269 75.5598C116.339 69.9498 126.339 57.3498 126.339 57.3498L132.509 71.0398Z" fill="#FFB3AE"/>
<path d="M134.849 72.6998C132.629 75.0898 129.919 77.6898 126.689 80.2798C122.499 83.6398 118.459 86.1498 114.949 88.0298C112.509 84.5598 108.859 79.3598 106.259 75.5698C112.249 71.6498 116.049 67.5798 118.459 64.4798C121.389 60.7098 123.029 57.3798 126.979 56.2398C129.329 55.5598 132.539 55.6498 134.699 57.4098C138.069 60.1398 138.639 66.6898 134.839 72.7098L134.849 72.6998Z" fill="#FA9856"/>
<path d="M98.729 50.0497C98.729 50.0497 97.749 44.9297 92.009 49.0797C86.279 53.2297 83.859 55.0097 84.899 56.7697C85.949 58.5297 92.329 54.7097 92.329 54.7097" fill="#FFB3AE"/>
<path d="M92.3393 62.5599V62.5799C91.1493 62.9799 90.3293 62.6599 89.7693 62.0099C88.3393 60.3499 88.4793 56.6199 88.4793 56.6199C89.1893 56.2999 89.8993 55.9799 90.6093 55.6599C91.1893 57.9599 91.7593 60.2599 92.3393 62.5599Z" fill="#FFB3AE"/>
<path d="M93.6994 62.9398C93.1594 63.0898 92.7094 62.9398 92.3394 62.5698V62.5498C92.0894 62.3198 91.8694 61.9798 91.6994 61.5898C91.6794 61.5698 91.6794 61.5598 91.6794 61.5598C90.7094 59.4098 90.6094 55.6498 90.6094 55.6498C91.5694 54.3798 92.5394 53.1098 93.4994 51.8398C94.3194 53.4298 95.1294 55.0198 95.9494 56.6098C95.9494 56.6098 96.5694 62.0798 93.6994 62.9398Z" fill="#FFB3AE"/>
<path d="M100.949 80.9398L94.2393 79.6498L96.9793 78.1898C90.5493 77.8998 89.7793 62.0098 89.7793 62.0098C90.3293 62.6598 91.1593 62.9798 92.3493 62.5798C92.7193 62.9498 93.1693 63.0998 93.7093 62.9498C96.5793 62.0898 95.9593 56.6198 95.9593 56.6198L92.0693 55.9198C92.1193 55.5198 92.2693 55.0798 92.5093 54.6098L98.6993 50.0998C99.2893 50.0298 99.8393 50.0698 100.329 50.1798H100.399C102.579 50.6798 104.039 52.7598 104.029 54.9998V55.3498C103.959 64.5598 103.689 68.7598 105.689 69.6798C106.229 69.9198 106.479 69.7298 106.729 70.0198C108.439 71.8998 100.969 80.9498 100.969 80.9498L100.949 80.9398Z" fill="#FFB3AE"/>
<path d="M100.059 63.2998C99.9989 63.2998 99.9289 63.2998 99.8689 63.2798C99.1589 63.1098 97.4089 62.5398 96.4589 60.7998C95.4089 58.8698 95.8189 56.3898 97.4689 54.6298C97.7889 54.2898 98.3189 54.2798 98.6589 54.5898C98.9989 54.9098 99.0089 55.4398 98.6989 55.7798C97.5589 56.9898 97.2489 58.7198 97.9389 59.9898C98.5589 61.1298 99.7689 61.5198 100.259 61.6398C100.709 61.7498 100.989 62.1998 100.879 62.6498C100.789 63.0398 100.449 63.2998 100.059 63.2998Z" fill="#FF7A72"/>
<path d="M93.3397 58.3298C92.9497 58.3298 92.6097 58.2598 92.2897 58.1198C91.8897 57.9498 90.9897 57.3698 91.2197 55.7898C91.2897 55.3298 91.7197 55.0198 92.1697 55.0798C92.6297 55.1498 92.9497 55.5698 92.8797 56.0298C92.8497 56.2598 92.8497 56.5398 92.9497 56.5798C93.1697 56.6698 93.8597 56.7998 95.5297 55.8798C96.6297 55.2798 97.5297 54.5598 97.5397 54.5498C97.8897 54.2698 98.4297 54.2998 98.7197 54.6398C99.0097 54.9898 98.9997 55.4898 98.6597 55.7898L98.0997 55.1698L98.6597 55.7998C98.5497 55.8898 97.5697 56.6798 96.3397 57.3498C95.1597 57.9998 94.1597 58.3298 93.3297 58.3298H93.3397Z" fill="#FF7A72"/>
<path d="M92.4889 55.4397C92.3689 55.4397 92.2389 55.4097 92.1289 55.3597C91.7089 55.1597 91.5389 54.6597 91.7389 54.2397C92.5689 52.5097 94.5789 50.2097 97.4989 49.4497C97.8789 49.3497 98.2389 49.2997 98.5989 49.2597C99.0489 49.2197 99.4789 49.5397 99.5189 49.9997C99.5689 50.4597 99.2389 50.8797 98.7789 50.9197C98.4989 50.9497 98.2189 50.9897 97.9189 51.0697C95.7089 51.6497 93.9789 53.4497 93.2489 54.9697C93.0989 55.2697 92.7989 55.4497 92.4889 55.4497V55.4397Z" fill="#FF7A72"/>
<path d="M106.269 76.3998C105.979 76.3998 105.699 76.2498 105.549 75.9898C105.309 75.5898 105.439 75.0798 105.839 74.8398C105.929 74.7798 115.259 69.1698 120.309 60.5898C120.539 60.1898 121.059 60.0598 121.459 60.2898C121.859 60.5198 121.989 61.0398 121.759 61.4398C116.489 70.3898 107.099 76.0398 106.709 76.2798C106.579 76.3598 106.429 76.3998 106.279 76.3998H106.269Z" fill="#FF7A72"/>
<path d="M130.84 47.8698C129.3 49.4098 118.77 59.8998 114.54 59.8398C114.31 59.8398 113.84 59.8098 113.62 59.4998C112.34 57.7498 121.14 49.5498 121.14 49.5498C120.99 48.8298 120.82 48.1198 120.67 47.3998L120.03 44.5098C119.48 45.0598 118.64 45.8398 117.51 46.6398C116.08 47.6798 112.79 49.8998 110.09 49.9798C105.04 50.1098 101.65 39.9398 101.65 39.9398C100.84 39.6698 100.04 39.4198 99.2197 39.1498C99.8197 37.3698 100.41 35.5898 101 33.8098C98.9897 28.6698 101 18.3498 101 18.3498L101.87 15.0598C102.88 16.6898 106.25 21.7098 112.98 24.2698C119.07 26.5898 124.39 25.5298 126.34 25.0598C126.99 28.4198 127.67 31.7598 128.32 35.1098V35.1298C128.79 37.5098 129.26 39.9098 129.75 42.2998C130.1 44.1498 130.47 46.0098 130.84 47.8598V47.8698Z" fill="#FFB3AE"/>
<path d="M130.48 31.4898C129.4 34.7698 126.99 36.9298 125.09 36.2998C123.19 35.6798 122.53 32.5098 123.61 29.2198C124.69 25.9398 127.1 23.7798 129 24.4098C130.9 25.0298 131.56 28.1998 130.48 31.4898Z" fill="#FFB3AE"/>
<path d="M129.749 42.3199L120.669 47.4099L120.029 44.5199L128.319 35.1499C128.789 37.5299 129.259 39.9299 129.749 42.3199Z" fill="#FF7A72"/>
<path d="M161.35 119.88L159.84 122.89C142.65 130.79 121.89 133.85 101.87 134.43C82.5504 135 63.9404 133.25 49.9004 131.3C50.9604 127.23 55.2704 117.54 72.8704 113.98C75.1804 113.52 77.7104 113.15 80.4904 112.92C110.49 110.45 161.35 119.88 161.35 119.88Z" fill="#32BFA3"/>
</g>
<defs>
<clipPath id="clip0_188_691">
<rect width="199.62" height="134.55" fill="white"/>
</clipPath>
</defs>
</svg>
