<svg xmlns="http://www.w3.org/2000/svg" xmlns:xlink="http://www.w3.org/1999/xlink" width="150" zoomAndPan="magnify" viewBox="0 0 375 374.999991" height="150" preserveAspectRatio="xMidYMid meet" version="1.0"><defs><g/><clipPath id="92cfe103c5"><path d="M 61 197.34375 L 110.449219 197.34375 L 110.449219 246.84375 L 61 246.84375 Z M 61 197.34375 " clip-rule="nonzero"/></clipPath><clipPath id="c5f57034d9"><path d="M 110.710938 197.578125 L 160.210938 197.578125 L 160.210938 247 L 110.710938 247 Z M 110.710938 197.578125 " clip-rule="nonzero"/></clipPath><clipPath id="341cd5b946"><path d="M 60.9375 147.332031 L 110.4375 147.332031 L 110.4375 196.832031 L 60.9375 196.832031 Z M 60.9375 147.332031 " clip-rule="nonzero"/></clipPath><clipPath id="a6ce541b90"><path d="M 146.582031 205 L 151 205 L 151 209.332031 L 146.582031 209.332031 Z M 146.582031 205 " clip-rule="nonzero"/></clipPath><clipPath id="d6765435ca"><path d="M 149 199.582031 L 156.332031 199.582031 L 156.332031 207 L 149 207 Z M 149 199.582031 " clip-rule="nonzero"/></clipPath><clipPath id="18f76ae2b0"><path d="M 70 205 L 74.808594 205 L 74.808594 209.332031 L 70 209.332031 Z M 70 205 " clip-rule="nonzero"/></clipPath><clipPath id="ccb4ca76bc"><path d="M 65.421875 199.582031 L 73 199.582031 L 73 207 L 65.421875 207 Z M 65.421875 199.582031 " clip-rule="nonzero"/></clipPath><clipPath id="d2e140b237"><path d="M 95.945312 156 L 102 156 L 102 161.96875 L 95.945312 161.96875 Z M 95.945312 156 " clip-rule="nonzero"/></clipPath><clipPath id="b07436118d"><path d="M 99 149.21875 L 108.695312 149.21875 L 108.695312 159 L 99 159 Z M 99 149.21875 " clip-rule="nonzero"/></clipPath><clipPath id="357b885a04"><path d="M 124 202.601562 L 143 202.601562 L 143 217 L 124 217 Z M 124 202.601562 " clip-rule="nonzero"/></clipPath><clipPath id="692c09f24d"><path d="M 118.320312 217 L 144.570312 217 L 144.570312 226.601562 L 118.320312 226.601562 Z M 118.320312 217 " clip-rule="nonzero"/></clipPath><clipPath id="4aca6524b6"><path d="M 76.394531 207 L 89 207 L 89 226 L 76.394531 226 Z M 76.394531 207 " clip-rule="nonzero"/></clipPath><clipPath id="d9f177b17f"><path d="M 93 207 L 105.644531 207 L 105.644531 226 L 93 226 Z M 93 207 " clip-rule="nonzero"/></clipPath><clipPath id="0347f6f986"><path d="M 77 159 L 101 159 L 101 195 L 77 195 Z M 77 159 " clip-rule="nonzero"/></clipPath><clipPath id="55e66c7fac"><path d="M 75.171875 163.695312 L 95.554688 158.632812 L 103.867188 192.117188 L 83.484375 197.179688 Z M 75.171875 163.695312 " clip-rule="nonzero"/></clipPath><clipPath id="58085a4eb9"><path d="M 75.171875 163.695312 L 95.554688 158.632812 L 103.867188 192.117188 L 83.484375 197.179688 Z M 75.171875 163.695312 " clip-rule="nonzero"/></clipPath></defs><g fill="#ff5c1a" fill-opacity="1"><g transform="translate(111.785153, 193.874987)"><g><path d="M 2.453125 -26.5 L 0.265625 -26.5 L 2.453125 -36.296875 L 14.796875 -36.296875 L 15.078125 -37.546875 L 23.5625 -37.546875 L 21.109375 -26.5 L 12.25 -26.5 L 12.25 -21.765625 L 21.765625 -21.765625 L 19.703125 -12.6875 L 12.25 -12.6875 L 12.25 0 L 2.453125 0 Z M 2.453125 -26.5 "/></g></g></g><g fill="#ff5c1a" fill-opacity="1"><g transform="translate(135.780059, 193.874987)"><g><path d="M 2.453125 -26.5 L 0.265625 -26.5 L 2.453125 -36.296875 L 13.4375 -36.296875 C 14.5625 -36.296875 15.554688 -36.257812 16.421875 -36.1875 C 17.296875 -36.113281 18.078125 -36.015625 18.765625 -35.890625 C 19.460938 -35.765625 20.070312 -35.582031 20.59375 -35.34375 C 21.125 -35.113281 21.625 -34.832031 22.09375 -34.5 C 23.070312 -33.738281 23.832031 -32.710938 24.375 -31.421875 C 24.925781 -30.140625 25.203125 -28.679688 25.203125 -27.046875 C 25.203125 -25.191406 24.921875 -23.65625 24.359375 -22.4375 C 23.796875 -21.226562 22.820312 -20.132812 21.4375 -19.15625 C 23.144531 -18.539062 24.390625 -17.503906 25.171875 -16.046875 C 25.953125 -14.597656 26.34375 -12.660156 26.34375 -10.234375 C 26.34375 -6.566406 25.289062 -3.804688 23.1875 -1.953125 C 22.75 -1.554688 22.289062 -1.226562 21.8125 -0.96875 C 21.34375 -0.71875 20.765625 -0.519531 20.078125 -0.375 C 19.390625 -0.226562 18.5625 -0.128906 17.59375 -0.078125 C 16.632812 -0.0234375 15.453125 0 14.046875 0 L 2.453125 0 Z M 12.25 -21.609375 C 13.625 -21.609375 14.53125 -21.804688 14.96875 -22.203125 C 15.40625 -22.597656 15.625 -23.394531 15.625 -24.59375 C 15.625 -25.570312 15.40625 -26.28125 14.96875 -26.71875 C 14.53125 -27.15625 13.820312 -27.375 12.84375 -27.375 L 12.25 -27.375 Z M 12.25 -9.03125 C 12.425781 -9 12.59375 -8.984375 12.75 -8.984375 C 12.914062 -8.984375 13.035156 -8.984375 13.109375 -8.984375 C 14.160156 -8.984375 14.90625 -9.234375 15.34375 -9.734375 C 15.78125 -10.242188 16 -11.097656 16 -12.296875 C 16 -13.492188 15.726562 -14.316406 15.1875 -14.765625 C 14.644531 -15.222656 13.664062 -15.453125 12.25 -15.453125 Z M 12.25 -9.03125 "/></g></g></g><g fill="#ff5c1a" fill-opacity="1"><g transform="translate(163.474863, 193.874987)"><g><path d="M 2.453125 -26.5 L 0.265625 -26.5 L 2.453125 -36.296875 L 12.25 -36.296875 L 12.25 -9.796875 L 19.640625 -9.796875 L 17.53125 0 L 2.453125 0 Z M 2.453125 -26.5 "/></g></g></g><g fill="#ff5c1a" fill-opacity="1"><g transform="translate(183.280178, 193.874987)"><g><path d="M 6.375 -26.5 L 4.1875 -26.5 L 6.375 -36.296875 L 22.046875 -36.296875 L 30.640625 0 L 19.8125 0 L 18.5625 -6.265625 L 11.703125 -6.265625 L 10.390625 0 L -0.109375 0 Z M 17.53125 -14.375 L 15.234375 -24.484375 L 12.890625 -14.375 Z M 17.53125 -14.375 "/></g></g></g><g fill="#ff5c1a" fill-opacity="1"><g transform="translate(213.804304, 193.874987)"><g><path d="M 3.8125 -12.078125 C 5.15625 -11.140625 6.566406 -10.40625 8.046875 -9.875 C 9.535156 -9.351562 10.914062 -9.09375 12.1875 -9.09375 C 12.914062 -9.09375 13.515625 -9.269531 13.984375 -9.625 C 14.453125 -9.988281 14.6875 -10.484375 14.6875 -11.109375 C 14.6875 -11.429688 14.632812 -11.726562 14.53125 -12 C 14.425781 -12.269531 14.207031 -12.550781 13.875 -12.84375 C 13.550781 -13.132812 13.109375 -13.441406 12.546875 -13.765625 C 11.984375 -14.097656 11.25 -14.476562 10.34375 -14.90625 C 8.632812 -15.707031 7.316406 -16.394531 6.390625 -16.96875 C 5.460938 -17.550781 4.65625 -18.171875 3.96875 -18.828125 C 3.03125 -19.660156 2.316406 -20.710938 1.828125 -21.984375 C 1.335938 -23.253906 1.09375 -24.613281 1.09375 -26.0625 C 1.09375 -27.625 1.34375 -29.054688 1.84375 -30.359375 C 2.351562 -31.671875 3.070312 -32.804688 4 -33.765625 C 4.925781 -34.734375 6.003906 -35.488281 7.234375 -36.03125 C 8.472656 -36.570312 9.832031 -36.84375 11.3125 -36.84375 C 12.082031 -36.84375 12.800781 -36.796875 13.46875 -36.703125 C 14.132812 -36.617188 15.015625 -36.445312 16.109375 -36.1875 L 16.484375 -37.765625 L 24.328125 -35.859375 L 21.875 -25.90625 C 20.863281 -26.738281 19.738281 -27.378906 18.5 -27.828125 C 17.269531 -28.285156 16.070312 -28.515625 14.90625 -28.515625 C 14 -28.515625 13.265625 -28.34375 12.703125 -28 C 12.140625 -27.65625 11.859375 -27.191406 11.859375 -26.609375 C 11.859375 -26.316406 11.921875 -26.046875 12.046875 -25.796875 C 12.179688 -25.546875 12.425781 -25.273438 12.78125 -24.984375 C 13.144531 -24.691406 13.632812 -24.363281 14.25 -24 C 14.875 -23.632812 15.65625 -23.21875 16.59375 -22.75 C 17.5 -22.28125 18.269531 -21.867188 18.90625 -21.515625 C 19.539062 -21.171875 20.082031 -20.84375 20.53125 -20.53125 C 20.988281 -20.226562 21.378906 -19.929688 21.703125 -19.640625 C 22.035156 -19.347656 22.347656 -19.023438 22.640625 -18.671875 C 24.234375 -16.742188 25.03125 -14.363281 25.03125 -11.53125 C 25.03125 -9.757812 24.726562 -8.128906 24.125 -6.640625 C 23.53125 -5.148438 22.707031 -3.878906 21.65625 -2.828125 C 20.601562 -1.773438 19.34375 -0.945312 17.875 -0.34375 C 16.40625 0.25 14.78125 0.546875 13 0.546875 C 11.039062 0.546875 9.132812 0.273438 7.28125 -0.265625 C 5.4375 -0.816406 3.519531 -1.671875 1.53125 -2.828125 Z M 3.8125 -12.078125 "/></g></g></g><path stroke-linecap="butt" transform="matrix(0.75, 0, 0, 0.75, 242.999989, 139.124991)" fill="none" stroke-linejoin="miter" d="M 7.104182 37.661473 L 0.281265 37.661473 L 3.187515 24.60418 L 18.140641 24.60418 L 18.58335 22.937514 L 29.901059 22.937514 L 26.625017 37.661473 L 20.1771 37.661473 L 20.1771 73.000017 L 7.104182 73.000017 Z M 31.989601 37.661473 L 29.083351 37.661473 L 31.989601 24.60418 L 48.531268 24.60418 L 48.531268 22.937514 L 60.067728 22.937514 L 56.807311 37.661473 L 45.062518 37.661473 L 45.062518 43.468765 L 59.057311 43.468765 L 56.807311 54.135432 L 45.062518 54.135432 L 45.062518 59.942724 L 59.057311 59.942724 L 56.151061 73.000017 L 31.989601 73.000017 Z M 64.713561 35.265639 L 62.020853 35.265639 L 64.713561 23.432305 L 76.614604 23.432305 L 76.614604 49.494807 L 80.885437 37.661473 L 93.234396 37.661473 L 86.625021 53.692724 L 94.687521 73.000017 L 81.401062 73.000017 L 76.614604 58.916683 L 76.614604 73.000017 L 64.713561 73.000017 Z M 103.953147 58.843766 C 105.984397 58.843766 107.578147 59.526058 108.734397 60.885433 C 109.906272 62.2396 110.489606 64.078141 110.489606 66.390642 C 110.489606 68.718767 109.869814 70.562517 108.630231 71.921892 C 107.401064 73.265642 105.770856 73.937517 103.739605 73.937517 C 101.708355 73.937517 100.088564 73.265642 98.869813 71.921892 C 97.666688 70.562517 97.062522 68.765642 97.062522 66.536475 C 97.062522 64.218766 97.687522 62.359391 98.94273 60.953141 C 100.203147 59.546891 101.875022 58.843766 103.953147 58.843766 Z M 103.953147 58.843766 " stroke="#20b486" stroke-width="1.950252" stroke-opacity="1" stroke-miterlimit="4"/><g clip-path="url(#92cfe103c5)"><path fill="#ff5c1a" d="M 61.183594 197.578125 C 61.183594 204.046875 62.457031 210.453125 64.933594 216.429688 C 67.40625 222.40625 71.035156 227.839844 75.613281 232.414062 C 80.1875 236.988281 85.617188 240.617188 91.59375 243.09375 C 97.570312 245.566406 103.976562 246.84375 110.449219 246.84375 L 110.449219 197.578125 Z M 61.183594 197.578125 " fill-opacity="1" fill-rule="nonzero"/></g><g clip-path="url(#c5f57034d9)"><path fill="#ebb016" d="M 110.945312 246.84375 C 117.414062 246.84375 123.820312 245.566406 129.796875 243.09375 C 135.773438 240.617188 141.207031 236.988281 145.78125 232.414062 C 150.355469 227.839844 153.984375 222.40625 156.460938 216.429688 C 158.9375 210.453125 160.210938 204.046875 160.210938 197.578125 L 110.945312 197.578125 Z M 110.945312 246.84375 " fill-opacity="1" fill-rule="nonzero"/></g><g clip-path="url(#341cd5b946)"><path fill="#20b486" d="M 110.203125 147.566406 C 103.730469 147.566406 97.324219 148.839844 91.347656 151.316406 C 85.371094 153.792969 79.941406 157.421875 75.363281 161.996094 C 70.789062 166.570312 67.160156 172.003906 64.6875 177.980469 C 62.210938 183.957031 60.9375 190.363281 60.9375 196.832031 L 110.203125 196.832031 Z M 110.203125 147.566406 " fill-opacity="1" fill-rule="nonzero"/></g><g clip-path="url(#a6ce541b90)"><path fill="#ffffff" d="M 150.722656 207.726562 L 150.492188 207.644531 C 150.507812 207.480469 150.5 207.308594 150.476562 207.144531 L 150.699219 207.046875 C 150.835938 206.980469 150.894531 206.816406 150.828125 206.6875 L 150.699219 206.40625 C 150.632812 206.269531 150.46875 206.210938 150.335938 206.277344 L 150.117188 206.375 C 150.007812 206.246094 149.886719 206.128906 149.746094 206.03125 L 149.828125 205.800781 C 149.878906 205.664062 149.804688 205.5 149.664062 205.449219 L 149.378906 205.34375 C 149.238281 205.292969 149.074219 205.367188 149.027344 205.507812 L 148.945312 205.734375 C 148.78125 205.71875 148.609375 205.726562 148.445312 205.753906 L 148.339844 205.523438 C 148.273438 205.382812 148.109375 205.328125 147.976562 205.390625 L 147.699219 205.523438 C 147.558594 205.589844 147.503906 205.753906 147.566406 205.882812 L 147.667969 206.105469 C 147.535156 206.210938 147.421875 206.335938 147.324219 206.472656 L 147.09375 206.390625 C 146.953125 206.34375 146.789062 206.417969 146.742188 206.554688 L 146.632812 206.84375 C 146.609375 206.90625 146.609375 206.980469 146.640625 207.054688 C 146.675781 207.121094 146.722656 207.171875 146.796875 207.195312 L 147.027344 207.277344 C 147.011719 207.441406 147.019531 207.613281 147.042969 207.777344 L 146.824219 207.875 C 146.683594 207.941406 146.625 208.105469 146.691406 208.234375 L 146.824219 208.511719 C 146.886719 208.652344 147.050781 208.710938 147.183594 208.644531 L 147.40625 208.546875 C 147.511719 208.675781 147.632812 208.792969 147.773438 208.890625 L 147.691406 209.121094 C 147.667969 209.183594 147.667969 209.257812 147.699219 209.332031 C 147.730469 209.398438 147.78125 209.449219 147.855469 209.472656 L 148.140625 209.578125 C 148.207031 209.601562 148.28125 209.601562 148.355469 209.570312 C 148.421875 209.539062 148.46875 209.488281 148.492188 209.414062 L 148.574219 209.183594 C 148.738281 209.203125 148.910156 209.195312 149.074219 209.167969 L 149.175781 209.390625 C 149.238281 209.53125 149.402344 209.585938 149.535156 209.519531 L 149.8125 209.390625 C 149.953125 209.324219 150.007812 209.160156 149.945312 209.03125 L 149.847656 208.808594 C 149.976562 208.703125 150.089844 208.578125 150.191406 208.441406 L 150.417969 208.523438 C 150.484375 208.546875 150.566406 208.546875 150.632812 208.511719 C 150.699219 208.480469 150.746094 208.433594 150.769531 208.359375 L 150.878906 208.070312 C 150.933594 207.941406 150.863281 207.785156 150.722656 207.726562 Z M 149.214844 208.449219 C 149.066406 208.511719 148.921875 208.546875 148.765625 208.546875 C 148.339844 208.546875 147.953125 208.300781 147.78125 207.914062 C 147.527344 207.375 147.773438 206.726562 148.3125 206.472656 C 148.460938 206.40625 148.609375 206.375 148.765625 206.375 C 149.191406 206.375 149.574219 206.621094 149.746094 207.007812 C 149.992188 207.554688 149.753906 208.195312 149.214844 208.449219 Z M 149.214844 208.449219 " fill-opacity="1" fill-rule="nonzero"/></g><g clip-path="url(#d6765435ca)"><path fill="#ffffff" d="M 156.308594 203.6875 L 155.925781 203.550781 C 155.957031 203.269531 155.941406 202.984375 155.890625 202.703125 L 156.261719 202.53125 C 156.488281 202.425781 156.597656 202.15625 156.488281 201.917969 L 156.277344 201.453125 C 156.171875 201.222656 155.898438 201.117188 155.664062 201.222656 L 155.292969 201.394531 C 155.113281 201.171875 154.902344 200.976562 154.671875 200.820312 L 154.808594 200.4375 C 154.902344 200.199219 154.777344 199.929688 154.539062 199.847656 L 154.058594 199.664062 C 153.828125 199.582031 153.546875 199.707031 153.46875 199.9375 L 153.328125 200.320312 C 153.050781 200.289062 152.761719 200.304688 152.484375 200.355469 L 152.3125 199.984375 C 152.207031 199.753906 151.933594 199.648438 151.695312 199.753906 L 151.230469 199.96875 C 151 200.074219 150.894531 200.34375 151 200.582031 L 151.171875 200.953125 C 150.953125 201.132812 150.753906 201.34375 150.597656 201.574219 L 150.214844 201.433594 C 149.984375 201.351562 149.707031 201.476562 149.625 201.707031 L 149.445312 202.1875 C 149.402344 202.304688 149.402344 202.425781 149.460938 202.542969 C 149.511719 202.65625 149.609375 202.738281 149.722656 202.777344 L 150.109375 202.917969 C 150.074219 203.195312 150.082031 203.484375 150.140625 203.761719 L 149.773438 203.933594 C 149.542969 204.039062 149.4375 204.3125 149.542969 204.546875 L 149.753906 205.015625 C 149.863281 205.246094 150.132812 205.351562 150.371094 205.246094 L 150.738281 205.074219 C 150.917969 205.292969 151.132812 205.492188 151.363281 205.644531 L 151.222656 206.03125 C 151.179688 206.144531 151.179688 206.269531 151.238281 206.382812 C 151.289062 206.5 151.386719 206.582031 151.5 206.621094 L 151.984375 206.800781 C 152.097656 206.84375 152.222656 206.84375 152.335938 206.785156 C 152.449219 206.734375 152.53125 206.636719 152.574219 206.523438 L 152.714844 206.136719 C 152.992188 206.171875 153.277344 206.164062 153.558594 206.105469 L 153.730469 206.472656 C 153.835938 206.703125 154.105469 206.808594 154.34375 206.703125 L 154.808594 206.488281 C 155.039062 206.382812 155.144531 206.113281 155.039062 205.875 L 154.867188 205.507812 C 155.089844 205.328125 155.285156 205.113281 155.441406 204.882812 L 155.828125 205.023438 C 155.941406 205.066406 156.0625 205.066406 156.179688 205.007812 C 156.292969 204.957031 156.375 204.859375 156.417969 204.746094 L 156.597656 204.261719 C 156.671875 204.039062 156.546875 203.777344 156.308594 203.6875 Z M 153.777344 204.890625 C 153.539062 205.007812 153.277344 205.054688 153.015625 205.054688 C 152.304688 205.054688 151.65625 204.636719 151.363281 204 C 150.933594 203.089844 151.335938 202 152.246094 201.582031 C 152.484375 201.46875 152.746094 201.417969 153.007812 201.417969 C 153.722656 201.417969 154.367188 201.835938 154.664062 202.476562 C 155.089844 203.386719 154.6875 204.476562 153.777344 204.890625 Z M 153.777344 204.890625 " fill-opacity="1" fill-rule="nonzero"/></g><g clip-path="url(#18f76ae2b0)"><path fill="#ffffff" d="M 71.03125 207.726562 L 71.261719 207.644531 C 71.246094 207.480469 71.253906 207.308594 71.277344 207.144531 L 71.054688 207.046875 C 70.917969 206.980469 70.859375 206.816406 70.925781 206.6875 L 71.054688 206.40625 C 71.121094 206.269531 71.285156 206.210938 71.417969 206.277344 L 71.636719 206.375 C 71.746094 206.246094 71.867188 206.128906 72.007812 206.03125 L 71.925781 205.800781 C 71.875 205.664062 71.949219 205.5 72.089844 205.449219 L 72.375 205.34375 C 72.515625 205.292969 72.679688 205.367188 72.726562 205.507812 L 72.808594 205.734375 C 72.972656 205.71875 73.144531 205.726562 73.308594 205.753906 L 73.414062 205.523438 C 73.480469 205.382812 73.644531 205.328125 73.777344 205.390625 L 74.054688 205.523438 C 74.195312 205.589844 74.25 205.753906 74.1875 205.882812 L 74.085938 206.105469 C 74.21875 206.210938 74.332031 206.335938 74.429688 206.472656 L 74.660156 206.390625 C 74.800781 206.34375 74.964844 206.417969 75.011719 206.554688 L 75.121094 206.84375 C 75.144531 206.90625 75.144531 206.980469 75.113281 207.054688 C 75.078125 207.121094 75.03125 207.171875 74.957031 207.195312 L 74.726562 207.277344 C 74.742188 207.441406 74.734375 207.613281 74.710938 207.777344 L 74.929688 207.875 C 75.070312 207.941406 75.128906 208.105469 75.0625 208.234375 L 74.929688 208.511719 C 74.867188 208.652344 74.703125 208.710938 74.570312 208.644531 L 74.347656 208.546875 C 74.242188 208.675781 74.121094 208.792969 73.980469 208.890625 L 74.0625 209.121094 C 74.085938 209.183594 74.085938 209.257812 74.054688 209.332031 C 74.023438 209.398438 73.972656 209.449219 73.898438 209.472656 L 73.613281 209.578125 C 73.546875 209.601562 73.472656 209.601562 73.398438 209.570312 C 73.332031 209.539062 73.285156 209.488281 73.261719 209.414062 L 73.179688 209.183594 C 73.015625 209.203125 72.84375 209.195312 72.679688 209.167969 L 72.578125 209.390625 C 72.515625 209.53125 72.351562 209.585938 72.21875 209.519531 L 71.941406 209.390625 C 71.800781 209.324219 71.746094 209.160156 71.808594 209.03125 L 71.90625 208.808594 C 71.777344 208.703125 71.664062 208.578125 71.5625 208.441406 L 71.335938 208.523438 C 71.269531 208.546875 71.1875 208.546875 71.121094 208.511719 C 71.054688 208.480469 71.007812 208.433594 70.980469 208.359375 L 70.875 208.070312 C 70.820312 207.941406 70.890625 207.785156 71.03125 207.726562 Z M 72.539062 208.449219 C 72.6875 208.511719 72.832031 208.546875 72.988281 208.546875 C 73.414062 208.546875 73.800781 208.300781 73.972656 207.914062 C 74.226562 207.375 73.980469 206.726562 73.441406 206.472656 C 73.292969 206.40625 73.144531 206.375 72.988281 206.375 C 72.5625 206.375 72.179688 206.621094 72.007812 207.007812 C 71.761719 207.554688 72 208.195312 72.539062 208.449219 Z M 72.539062 208.449219 " fill-opacity="1" fill-rule="nonzero"/></g><g clip-path="url(#ccb4ca76bc)"><path fill="#ffffff" d="M 65.445312 203.6875 L 65.828125 203.550781 C 65.796875 203.269531 65.8125 202.984375 65.863281 202.703125 L 65.492188 202.53125 C 65.265625 202.425781 65.15625 202.15625 65.265625 201.917969 L 65.476562 201.453125 C 65.582031 201.222656 65.855469 201.117188 66.089844 201.222656 L 66.460938 201.394531 C 66.640625 201.171875 66.851562 200.976562 67.082031 200.820312 L 66.945312 200.4375 C 66.851562 200.199219 66.976562 199.929688 67.214844 199.847656 L 67.695312 199.664062 C 67.925781 199.582031 68.207031 199.707031 68.285156 199.9375 L 68.425781 200.320312 C 68.703125 200.289062 68.992188 200.304688 69.269531 200.355469 L 69.441406 199.984375 C 69.546875 199.753906 69.820312 199.648438 70.058594 199.753906 L 70.523438 199.96875 C 70.753906 200.074219 70.859375 200.34375 70.753906 200.582031 L 70.582031 200.953125 C 70.800781 201.132812 71 201.34375 71.15625 201.574219 L 71.539062 201.433594 C 71.769531 201.351562 72.046875 201.476562 72.128906 201.707031 L 72.308594 202.1875 C 72.351562 202.304688 72.351562 202.425781 72.292969 202.542969 C 72.242188 202.65625 72.144531 202.738281 72.03125 202.777344 L 71.644531 202.917969 C 71.679688 203.195312 71.671875 203.484375 71.613281 203.761719 L 71.980469 203.933594 C 72.210938 204.039062 72.316406 204.3125 72.210938 204.546875 L 72 205.015625 C 71.890625 205.246094 71.621094 205.351562 71.382812 205.246094 L 71.015625 205.074219 C 70.835938 205.292969 70.621094 205.492188 70.390625 205.644531 L 70.53125 206.03125 C 70.574219 206.144531 70.574219 206.269531 70.515625 206.382812 C 70.464844 206.5 70.367188 206.582031 70.253906 206.621094 L 69.769531 206.800781 C 69.65625 206.84375 69.53125 206.84375 69.417969 206.785156 C 69.304688 206.734375 69.222656 206.636719 69.179688 206.523438 L 69.039062 206.136719 C 68.761719 206.171875 68.476562 206.164062 68.195312 206.105469 L 68.023438 206.472656 C 67.917969 206.703125 67.648438 206.808594 67.410156 206.703125 L 66.945312 206.488281 C 66.714844 206.382812 66.609375 206.113281 66.714844 205.875 L 66.886719 205.507812 C 66.664062 205.328125 66.46875 205.113281 66.3125 204.882812 L 65.925781 205.023438 C 65.8125 205.066406 65.691406 205.066406 65.574219 205.007812 C 65.460938 204.957031 65.378906 204.859375 65.335938 204.746094 L 65.15625 204.261719 C 65.082031 204.039062 65.207031 203.777344 65.445312 203.6875 Z M 67.976562 204.890625 C 68.214844 205.007812 68.476562 205.054688 68.738281 205.054688 C 69.449219 205.054688 70.097656 204.636719 70.390625 204 C 70.820312 203.089844 70.417969 202 69.507812 201.582031 C 69.269531 201.46875 69.007812 201.417969 68.746094 201.417969 C 68.03125 201.417969 67.386719 201.835938 67.089844 202.476562 C 66.664062 203.386719 67.066406 204.476562 67.976562 204.890625 Z M 67.976562 204.890625 " fill-opacity="1" fill-rule="nonzero"/></g><g clip-path="url(#d2e140b237)"><path fill="#ffffff" d="M 101.25 159.660156 L 100.953125 159.554688 C 100.976562 159.34375 100.964844 159.125 100.933594 158.914062 L 101.21875 158.789062 C 101.394531 158.703125 101.46875 158.492188 101.386719 158.324219 L 101.21875 157.96875 C 101.132812 157.789062 100.921875 157.714844 100.753906 157.800781 L 100.472656 157.925781 C 100.335938 157.757812 100.175781 157.609375 100 157.484375 L 100.105469 157.191406 C 100.167969 157.011719 100.070312 156.800781 99.894531 156.738281 L 99.527344 156.601562 C 99.347656 156.539062 99.136719 156.632812 99.074219 156.8125 L 98.96875 157.105469 C 98.757812 157.085938 98.539062 157.097656 98.328125 157.128906 L 98.191406 156.832031 C 98.109375 156.65625 97.898438 156.582031 97.730469 156.664062 L 97.375 156.832031 C 97.195312 156.917969 97.121094 157.128906 97.207031 157.296875 L 97.332031 157.578125 C 97.164062 157.714844 97.015625 157.875 96.890625 158.050781 L 96.597656 157.945312 C 96.417969 157.882812 96.207031 157.980469 96.144531 158.15625 L 96.007812 158.523438 C 95.976562 158.609375 95.976562 158.703125 96.019531 158.796875 C 96.058594 158.882812 96.125 158.945312 96.21875 158.976562 L 96.511719 159.082031 C 96.492188 159.292969 96.5 159.511719 96.53125 159.722656 L 96.25 159.847656 C 96.070312 159.933594 95.996094 160.140625 96.082031 160.308594 L 96.25 160.667969 C 96.332031 160.84375 96.542969 160.917969 96.710938 160.835938 L 96.996094 160.710938 C 97.132812 160.878906 97.289062 161.023438 97.46875 161.148438 L 97.363281 161.445312 C 97.332031 161.527344 97.332031 161.621094 97.375 161.71875 C 97.414062 161.800781 97.476562 161.863281 97.574219 161.894531 L 97.941406 162.03125 C 98.023438 162.0625 98.117188 162.0625 98.214844 162.023438 C 98.296875 161.980469 98.359375 161.917969 98.390625 161.824219 L 98.496094 161.527344 C 98.707031 161.550781 98.925781 161.539062 99.136719 161.507812 L 99.261719 161.789062 C 99.347656 161.96875 99.558594 162.042969 99.726562 161.957031 L 100.082031 161.789062 C 100.261719 161.707031 100.335938 161.496094 100.25 161.328125 L 100.125 161.046875 C 100.292969 160.910156 100.441406 160.75 100.566406 160.574219 L 100.859375 160.675781 C 100.945312 160.710938 101.046875 160.710938 101.132812 160.667969 C 101.21875 160.625 101.28125 160.5625 101.3125 160.46875 L 101.449219 160.101562 C 101.519531 159.933594 101.425781 159.730469 101.25 159.660156 Z M 99.316406 160.582031 C 99.125 160.667969 98.9375 160.710938 98.738281 160.710938 C 98.191406 160.710938 97.699219 160.394531 97.476562 159.902344 C 97.152344 159.207031 97.46875 158.378906 98.160156 158.050781 C 98.351562 157.96875 98.539062 157.925781 98.738281 157.925781 C 99.285156 157.925781 99.777344 158.242188 100 158.734375 C 100.3125 159.4375 100.007812 160.257812 99.316406 160.582031 Z M 99.316406 160.582031 " fill-opacity="1" fill-rule="nonzero"/></g><g clip-path="url(#b07436118d)"><path fill="#ffffff" d="M 108.410156 154.480469 L 107.917969 154.304688 C 107.960938 153.945312 107.9375 153.578125 107.875 153.222656 L 108.347656 153 C 108.640625 152.863281 108.777344 152.519531 108.640625 152.214844 L 108.367188 151.613281 C 108.230469 151.320312 107.886719 151.183594 107.582031 151.320312 L 107.109375 151.539062 C 106.878906 151.257812 106.605469 151.003906 106.308594 150.804688 L 106.488281 150.3125 C 106.605469 150.007812 106.445312 149.660156 106.140625 149.554688 L 105.523438 149.324219 C 105.230469 149.21875 104.871094 149.378906 104.765625 149.671875 L 104.589844 150.164062 C 104.230469 150.125 103.863281 150.144531 103.507812 150.207031 L 103.285156 149.734375 C 103.148438 149.441406 102.800781 149.304688 102.496094 149.441406 L 101.898438 149.714844 C 101.605469 149.851562 101.46875 150.195312 101.605469 150.5 L 101.824219 150.972656 C 101.542969 151.203125 101.289062 151.476562 101.089844 151.773438 L 100.597656 151.59375 C 100.304688 151.488281 99.945312 151.644531 99.839844 151.941406 L 99.609375 152.558594 C 99.558594 152.707031 99.558594 152.863281 99.632812 153.011719 C 99.695312 153.160156 99.820312 153.261719 99.96875 153.316406 L 100.460938 153.496094 C 100.417969 153.851562 100.429688 154.21875 100.503906 154.574219 L 100.03125 154.796875 C 99.734375 154.933594 99.597656 155.28125 99.734375 155.585938 L 100.007812 156.183594 C 100.144531 156.476562 100.492188 156.613281 100.796875 156.476562 L 101.269531 156.257812 C 101.5 156.539062 101.773438 156.792969 102.066406 156.992188 L 101.890625 157.484375 C 101.835938 157.632812 101.835938 157.789062 101.910156 157.9375 C 101.972656 158.082031 102.097656 158.1875 102.246094 158.242188 L 102.867188 158.472656 C 103.011719 158.523438 103.171875 158.523438 103.316406 158.453125 C 103.464844 158.386719 103.570312 158.261719 103.621094 158.113281 L 103.800781 157.621094 C 104.15625 157.664062 104.523438 157.652344 104.882812 157.578125 L 105.101562 158.050781 C 105.238281 158.347656 105.585938 158.484375 105.890625 158.347656 L 106.488281 158.074219 C 106.78125 157.9375 106.917969 157.589844 106.78125 157.285156 L 106.5625 156.8125 C 106.847656 156.582031 107.097656 156.308594 107.296875 156.015625 L 107.789062 156.191406 C 107.9375 156.246094 108.09375 156.246094 108.242188 156.171875 C 108.390625 156.109375 108.496094 155.984375 108.546875 155.835938 L 108.777344 155.214844 C 108.871094 154.933594 108.714844 154.597656 108.410156 154.480469 Z M 105.164062 156.023438 C 104.859375 156.171875 104.523438 156.234375 104.1875 156.234375 C 103.273438 156.234375 102.445312 155.699219 102.066406 154.878906 C 101.519531 153.714844 102.035156 152.316406 103.203125 151.78125 C 103.507812 151.636719 103.84375 151.574219 104.179688 151.574219 C 105.09375 151.574219 105.921875 152.109375 106.300781 152.925781 C 106.847656 154.09375 106.332031 155.488281 105.164062 156.023438 Z M 105.164062 156.023438 " fill-opacity="1" fill-rule="nonzero"/></g><g clip-path="url(#357b885a04)"><path fill="#ffffff" d="M 142.25 208.476562 C 142.136719 208.671875 141.933594 208.773438 141.722656 208.773438 C 141.617188 208.773438 141.507812 208.746094 141.40625 208.683594 L 133.496094 203.964844 L 125.582031 208.691406 C 125.292969 208.867188 124.914062 208.773438 124.738281 208.480469 C 124.5625 208.191406 124.660156 207.816406 124.949219 207.640625 L 127.890625 205.878906 L 127.890625 203.792969 C 127.890625 203.523438 128.113281 203.300781 128.382812 203.300781 L 129.703125 203.300781 C 129.972656 203.300781 130.195312 203.523438 130.195312 203.792969 L 130.195312 204.496094 L 133.179688 202.714844 C 133.375 202.601562 133.617188 202.601562 133.804688 202.714844 L 142.035156 207.632812 C 142.332031 207.808594 142.425781 208.1875 142.25 208.476562 Z M 139.597656 208.777344 L 139.597656 216.460938 C 139.597656 216.710938 139.398438 216.90625 139.152344 216.90625 L 134.890625 216.90625 L 134.890625 212.710938 C 134.890625 211.941406 134.265625 211.316406 133.496094 211.316406 C 132.726562 211.316406 132.097656 211.941406 132.097656 212.710938 L 132.097656 216.90625 L 127.835938 216.90625 C 127.585938 216.90625 127.390625 216.703125 127.390625 216.460938 L 127.390625 208.777344 L 133.496094 205.128906 Z M 129.917969 211.113281 L 128.808594 211.113281 L 128.808594 215.570312 L 129.917969 215.570312 Z M 138.183594 211.113281 L 137.070312 211.113281 L 137.070312 215.570312 L 138.183594 215.570312 Z M 138.183594 211.113281 " fill-opacity="1" fill-rule="nonzero"/></g><g clip-path="url(#692c09f24d)"><path fill="#ffffff" d="M 143.78125 221.082031 L 132.941406 226.207031 C 132.113281 226.601562 131.167969 226.695312 130.277344 226.472656 L 124.011719 224.90625 L 124.011719 218.863281 C 126.203125 218.058594 128.636719 218.316406 130.613281 219.558594 C 130.730469 219.632812 130.855469 219.691406 130.984375 219.746094 C 131.113281 219.792969 131.25 219.835938 131.382812 219.855469 L 135.269531 220.28125 C 135.808594 220.339844 136.214844 220.792969 136.214844 221.332031 C 136.214844 221.917969 135.742188 222.390625 135.152344 222.390625 L 129.664062 222.390625 C 129.425781 222.390625 129.203125 222.546875 129.152344 222.78125 C 129.070312 223.121094 129.328125 223.421875 129.648438 223.421875 L 135.039062 223.421875 C 136.191406 223.421875 137.175781 222.53125 137.238281 221.378906 C 137.25 221.082031 137.210938 220.800781 137.117188 220.535156 L 143.261719 219.464844 C 143.308594 219.457031 143.363281 219.449219 143.410156 219.449219 C 143.792969 219.449219 144.136719 219.707031 144.238281 220.089844 C 144.347656 220.488281 144.152344 220.90625 143.78125 221.082031 Z M 122.488281 217.878906 L 119.007812 217.878906 C 118.640625 217.878906 118.34375 218.175781 118.34375 218.539062 L 118.34375 225.054688 C 118.34375 225.417969 118.640625 225.714844 119.007812 225.714844 L 122.480469 225.714844 C 122.84375 225.714844 123.140625 225.417969 123.140625 225.054688 L 123.140625 218.539062 C 123.148438 218.175781 122.851562 217.878906 122.488281 217.878906 Z M 122.488281 217.878906 " fill-opacity="1" fill-rule="nonzero"/></g><g clip-path="url(#4aca6524b6)"><path fill="#ffffff" d="M 76.398438 225.945312 C 78.242188 225.277344 82.703125 224.097656 88.488281 225.445312 C 86.660156 224.421875 83.472656 223.488281 78.253906 224.335938 L 77.511719 224.457031 L 77.511719 207.738281 C 77.210938 207.734375 76.816406 207.746094 76.398438 207.761719 L 76.398438 225.945312 " fill-opacity="1" fill-rule="nonzero"/></g><path fill="#ffffff" d="M 90.511719 225.257812 L 90.511719 209.136719 C 89.984375 208.441406 86.992188 205.121094 78.789062 206.296875 L 78.789062 222.964844 C 80.019531 222.796875 81.140625 222.722656 82.160156 222.722656 C 86.628906 222.722656 89.1875 224.140625 90.511719 225.257812 " fill-opacity="1" fill-rule="nonzero"/><g clip-path="url(#d9f177b17f)"><path fill="#ffffff" d="M 105.902344 225.945312 L 105.902344 207.761719 C 105.484375 207.746094 105.085938 207.734375 104.785156 207.738281 L 104.785156 224.457031 L 104.042969 224.335938 C 98.816406 223.484375 95.628906 224.417969 93.800781 225.445312 C 99.589844 224.097656 104.054688 225.277344 105.902344 225.945312 " fill-opacity="1" fill-rule="nonzero"/></g><path fill="#ffffff" d="M 103.507812 222.964844 L 103.507812 206.296875 C 95.300781 205.117188 92.320312 208.433594 91.789062 209.136719 L 91.789062 225.257812 C 93.410156 223.886719 96.90625 222.058594 103.507812 222.964844 " fill-opacity="1" fill-rule="nonzero"/><g clip-path="url(#0347f6f986)"><g clip-path="url(#55e66c7fac)"><g clip-path="url(#58085a4eb9)"><path fill="#ffffff" d="M 100.457031 182.25 C 100.359375 182.378906 100.242188 182.503906 100.109375 182.617188 C 99.789062 182.894531 99.359375 183.140625 98.808594 183.371094 C 98.484375 183.503906 98.179688 183.609375 97.898438 183.679688 C 97.75 183.71875 97.609375 183.75 97.472656 183.769531 C 96.964844 183.851562 96.539062 183.8125 96.195312 183.664062 C 95.75 183.46875 95.433594 183.089844 95.21875 182.507812 C 93.984375 179.144531 91.113281 179.628906 90.269531 179.855469 L 89.730469 179.992188 C 88.871094 180.183594 86.109375 181.097656 86.589844 184.648438 C 86.675781 185.265625 86.570312 185.75 86.269531 186.125 C 86.007812 186.457031 85.585938 186.707031 85.007812 186.875 C 84.878906 186.914062 84.742188 186.949219 84.597656 186.976562 C 84.359375 187.027344 84.101562 187.0625 83.824219 187.089844 C 83.082031 187.160156 82.496094 187.117188 82.03125 186.949219 C 81.851562 186.886719 81.691406 186.804688 81.542969 186.707031 C 81.53125 186.699219 81.519531 186.6875 81.507812 186.679688 C 80.960938 186.289062 80.605469 185.570312 80.5625 184.753906 C 80.507812 183.757812 80.835938 182.640625 81.535156 181.4375 C 81.757812 181.050781 82.007812 180.667969 82.246094 180.300781 C 82.644531 179.691406 83.046875 179.070312 83.34375 178.414062 C 83.4375 178.585938 83.515625 178.753906 83.558594 178.921875 C 83.628906 179.207031 83.605469 179.542969 83.582031 179.898438 C 83.542969 180.445312 83.503906 181.015625 83.796875 181.527344 C 83.976562 181.847656 84.273438 182.074219 84.628906 182.167969 C 84.988281 182.261719 85.363281 182.210938 85.683594 182.019531 C 86.917969 181.285156 88.480469 180.179688 88.949219 179.097656 C 89.117188 179.140625 89.296875 179.144531 89.480469 179.097656 L 89.890625 178.996094 C 90.070312 178.953125 90.230469 178.863281 90.359375 178.746094 C 91.28125 179.488281 93.175781 179.738281 94.605469 179.820312 C 94.746094 179.828125 94.882812 179.8125 95.015625 179.78125 C 95.234375 179.726562 95.4375 179.617188 95.609375 179.460938 C 95.882812 179.210938 96.039062 178.871094 96.050781 178.503906 C 96.070312 177.910156 95.769531 177.421875 95.480469 176.949219 C 95.292969 176.644531 95.117188 176.359375 95.042969 176.070312 C 94.992188 175.847656 94.992188 175.601562 95.003906 175.339844 C 95.609375 175.84375 96.324219 176.242188 97.023438 176.632812 C 97.410156 176.84375 97.808594 177.066406 98.1875 177.304688 C 99.367188 178.039062 100.179688 178.875 100.597656 179.78125 C 100.9375 180.519531 100.960938 181.324219 100.660156 181.925781 C 100.605469 182.039062 100.539062 182.148438 100.457031 182.25 Z M 84.730469 187.394531 C 84.46875 187.453125 84.179688 187.496094 83.863281 187.523438 C 83.417969 187.566406 82.851562 187.589844 82.289062 187.472656 C 83.335938 191.480469 87.054688 194.40625 91.175781 194.4375 C 91.683594 194.441406 92.191406 194.402344 92.691406 194.316406 C 95.203125 193.90625 97.382812 192.5 98.832031 190.355469 C 100.300781 188.1875 100.847656 185.539062 100.347656 183.058594 C 100.34375 183.039062 100.339844 183.015625 100.335938 182.996094 C 100.296875 183.027344 100.257812 183.0625 100.214844 183.089844 C 99.804688 183.402344 99.347656 183.617188 98.972656 183.773438 C 98.667969 183.898438 98.382812 184 98.109375 184.074219 C 98.109375 184.078125 98.109375 184.078125 98.109375 184.078125 C 98.648438 187.550781 96.445312 190.933594 92.96875 191.796875 C 90.472656 192.417969 87.855469 191.554688 86.136719 189.550781 C 85.570312 188.886719 85.144531 188.148438 84.863281 187.367188 C 84.820312 187.375 84.777344 187.386719 84.730469 187.394531 Z M 82.1875 170.003906 C 81.507812 170.171875 81.09375 170.859375 81.261719 171.539062 C 81.429688 172.21875 82.121094 172.636719 82.800781 172.464844 C 83.480469 172.296875 83.894531 171.609375 83.726562 170.929688 C 83.558594 170.25 82.867188 169.832031 82.1875 170.003906 Z M 85.394531 161.769531 C 89.9375 160.640625 94.160156 162.988281 95.210938 167.226562 C 95.71875 169.269531 95.328125 171.007812 94.050781 172.390625 C 93.929688 172.519531 93.804688 172.640625 93.667969 172.765625 C 93.402344 172.753906 93.136719 172.816406 92.902344 172.960938 C 92.210938 173.378906 91.410156 173.914062 90.761719 174.496094 C 90.136719 174.742188 89.457031 174.957031 88.714844 175.140625 C 87.96875 175.328125 87.261719 175.457031 86.589844 175.53125 C 85.746094 175.324219 84.792969 175.230469 83.988281 175.1875 C 83.722656 175.175781 83.46875 175.238281 83.242188 175.363281 C 83.0625 175.316406 82.882812 175.265625 82.710938 175.203125 C 80.9375 174.578125 79.777344 173.226562 79.269531 171.183594 C 78.21875 166.945312 80.851562 162.898438 85.394531 161.769531 Z M 84.148438 170.824219 C 83.921875 169.910156 82.996094 169.351562 82.082031 169.578125 C 81.171875 169.804688 80.613281 170.734375 80.839844 171.644531 C 81.066406 172.558594 81.992188 173.117188 82.90625 172.890625 C 83.816406 172.664062 84.375 171.734375 84.148438 170.824219 Z M 91.976562 167.125 C 91.0625 167.351562 90.503906 168.277344 90.730469 169.191406 C 90.957031 170.101562 91.882812 170.660156 92.796875 170.433594 C 93.710938 170.207031 94.269531 169.28125 94.042969 168.367188 C 93.816406 167.457031 92.886719 166.898438 91.976562 167.125 Z M 87.355469 166.164062 C 88.019531 166.71875 88.664062 166.925781 89.265625 166.777344 C 89.320312 166.761719 89.371094 166.746094 89.417969 166.730469 L 89.648438 167.085938 C 89.699219 167.167969 89.796875 167.203125 89.882812 167.179688 C 89.90625 167.175781 89.929688 167.164062 89.949219 167.152344 C 90.050781 167.085938 90.082031 166.953125 90.015625 166.851562 L 89.808594 166.53125 C 89.957031 166.433594 90.085938 166.320312 90.199219 166.203125 L 90.753906 166.601562 C 90.804688 166.640625 90.871094 166.652344 90.933594 166.636719 C 90.980469 166.625 91.023438 166.597656 91.054688 166.550781 C 91.125 166.457031 91.105469 166.320312 91.007812 166.25 L 90.472656 165.863281 C 90.578125 165.714844 90.65625 165.578125 90.707031 165.480469 L 91.628906 165.59375 C 91.65625 165.597656 91.683594 165.597656 91.707031 165.589844 C 91.792969 165.570312 91.859375 165.496094 91.871094 165.40625 C 91.886719 165.285156 91.800781 165.179688 91.683594 165.164062 L 90.683594 165.035156 C 90.675781 165.035156 90.671875 165.03125 90.667969 165.027344 C 90.554688 164.980469 90.429688 165.035156 90.382812 165.144531 C 90.378906 165.15625 89.957031 166.15625 89.164062 166.351562 C 89.160156 166.351562 89.160156 166.351562 89.160156 166.351562 C 88.699219 166.464844 88.1875 166.289062 87.632812 165.828125 C 87.542969 165.75 87.40625 165.765625 87.328125 165.855469 C 87.25 165.949219 87.261719 166.085938 87.355469 166.164062 Z M 85.910156 169.101562 C 85.925781 169.152344 85.941406 169.199219 85.960938 169.246094 C 86.0625 169.460938 86.21875 169.621094 86.40625 169.757812 C 86.671875 169.949219 86.960938 170.085938 87.261719 170.199219 C 87.386719 170.753906 87.363281 170.984375 87.164062 171.296875 C 87.023438 171.519531 86.753906 171.6875 86.507812 171.707031 C 86.347656 171.71875 86.214844 171.660156 86.113281 171.542969 C 86.035156 171.449219 85.894531 171.441406 85.804688 171.519531 C 85.714844 171.597656 85.703125 171.734375 85.78125 171.824219 C 85.972656 172.050781 86.242188 172.160156 86.539062 172.140625 C 86.601562 172.136719 86.664062 172.125 86.722656 172.109375 C 87.042969 172.03125 87.351562 171.8125 87.535156 171.527344 C 87.621094 171.390625 87.679688 171.261719 87.71875 171.132812 C 87.816406 171.230469 87.929688 171.316406 88.070312 171.394531 C 88.363281 171.5625 88.738281 171.609375 89.058594 171.53125 C 89.117188 171.515625 89.179688 171.496094 89.234375 171.472656 C 89.507812 171.351562 89.695312 171.125 89.757812 170.835938 C 89.785156 170.71875 89.710938 170.605469 89.59375 170.578125 C 89.476562 170.550781 89.359375 170.625 89.332031 170.742188 C 89.296875 170.894531 89.207031 171.007812 89.058594 171.074219 C 88.835938 171.171875 88.519531 171.148438 88.285156 171.015625 C 87.96875 170.835938 87.835938 170.640625 87.6875 170.09375 C 87.902344 169.851562 88.09375 169.59375 88.238281 169.300781 C 88.339844 169.09375 88.402344 168.878906 88.390625 168.644531 C 88.390625 168.59375 88.378906 168.542969 88.371094 168.492188 C 88.261719 168.082031 87.871094 167.863281 87.46875 167.992188 C 87.34375 168.03125 87.242188 168.113281 87.167969 168.222656 C 87.132812 168.269531 87.101562 168.320312 87.078125 168.371094 C 87.066406 168.390625 87.054688 168.402344 87.042969 168.40625 C 87.03125 168.40625 87.015625 168.402344 86.996094 168.390625 C 86.949219 168.355469 86.898438 168.328125 86.847656 168.300781 C 86.730469 168.242188 86.605469 168.214844 86.472656 168.238281 C 86.058594 168.3125 85.8125 168.691406 85.910156 169.101562 Z M 81.371094 168.011719 C 81.425781 168.089844 81.515625 168.121094 81.601562 168.097656 C 81.628906 168.09375 81.652344 168.082031 81.675781 168.066406 L 82.433594 167.53125 C 82.527344 167.597656 82.660156 167.679688 82.820312 167.761719 L 82.53125 168.351562 C 82.476562 168.460938 82.519531 168.589844 82.628906 168.644531 C 82.675781 168.667969 82.730469 168.671875 82.777344 168.660156 C 82.835938 168.644531 82.890625 168.605469 82.921875 168.546875 L 83.222656 167.933594 C 83.378906 167.984375 83.546875 168.027344 83.71875 168.042969 L 83.6875 168.421875 C 83.679688 168.542969 83.765625 168.648438 83.886719 168.65625 C 83.910156 168.660156 83.933594 168.65625 83.957031 168.652344 C 84.046875 168.628906 84.113281 168.554688 84.121094 168.457031 L 84.160156 168.035156 C 84.210938 168.027344 84.261719 168.019531 84.3125 168.003906 C 84.917969 167.855469 85.390625 167.371094 85.71875 166.570312 C 85.761719 166.457031 85.710938 166.332031 85.597656 166.285156 C 85.488281 166.238281 85.359375 166.292969 85.316406 166.40625 C 85.042969 167.070312 84.671875 167.46875 84.210938 167.582031 C 83.414062 167.78125 82.574219 167.09375 82.566406 167.085938 C 82.472656 167.007812 82.335938 167.023438 82.261719 167.113281 C 82.253906 167.121094 82.253906 167.125 82.25 167.128906 L 81.425781 167.710938 C 81.324219 167.777344 81.300781 167.914062 81.371094 168.011719 Z M 91.152344 169.085938 C 91.324219 169.765625 92.011719 170.179688 92.691406 170.011719 C 93.371094 169.84375 93.785156 169.152344 93.617188 168.472656 C 93.449219 167.792969 92.757812 167.378906 92.082031 167.546875 C 91.402344 167.714844 90.984375 168.40625 91.152344 169.085938 Z M 89.222656 176.3125 L 88.8125 176.417969 C 88.464844 176.503906 88.25 176.859375 88.335938 177.207031 L 88.582031 178.199219 C 88.667969 178.550781 89.023438 178.761719 89.375 178.675781 L 89.785156 178.574219 C 90.136719 178.488281 90.347656 178.132812 90.261719 177.78125 L 90.015625 176.789062 C 89.929688 176.441406 89.574219 176.226562 89.222656 176.3125 Z M 91.621094 159.671875 C 91 159.914062 90.722656 161.011719 90.644531 161.5625 C 90.964844 161.675781 91.277344 161.8125 91.578125 161.964844 L 92.28125 160.59375 C 92.335938 160.488281 92.46875 160.445312 92.574219 160.5 C 92.679688 160.554688 92.722656 160.683594 92.667969 160.792969 L 92.296875 161.515625 L 93.058594 160.996094 C 93.15625 160.925781 93.292969 160.953125 93.359375 161.050781 C 93.429688 161.148438 93.402344 161.285156 93.304688 161.351562 L 92.042969 162.222656 C 92.324219 162.386719 92.589844 162.566406 92.839844 162.765625 C 93.167969 162.695312 93.976562 162.421875 94.117188 161.90625 C 94.230469 161.488281 93.910156 160.929688 93.1875 160.285156 C 92.550781 159.71875 92.023438 159.511719 91.621094 159.671875 Z M 86.328125 176.859375 L 87.886719 176.945312 C 87.898438 176.824219 87.929688 176.703125 87.984375 176.59375 C 87.980469 176.589844 87.972656 176.589844 87.96875 176.585938 C 87.101562 175.882812 85.089844 175.679688 83.96875 175.621094 C 83.710938 175.609375 83.46875 175.699219 83.28125 175.871094 C 83.097656 176.039062 82.992188 176.269531 82.984375 176.515625 C 82.972656 176.976562 83.222656 177.382812 83.492188 177.816406 C 83.6875 178.132812 83.890625 178.460938 83.980469 178.816406 C 84.066406 179.171875 84.039062 179.554688 84.015625 179.925781 C 83.980469 180.433594 83.949219 180.914062 84.175781 181.3125 C 84.296875 181.527344 84.5 181.683594 84.742188 181.746094 C 84.988281 181.8125 85.242188 181.773438 85.460938 181.644531 C 86.425781 181.070312 88.109375 179.949219 88.550781 178.921875 C 88.550781 178.917969 88.554688 178.914062 88.558594 178.90625 C 88.460938 178.835938 88.375 178.746094 88.308594 178.640625 L 86.96875 179.445312 C 86.949219 179.457031 86.929688 179.464844 86.910156 179.472656 C 86.820312 179.492188 86.722656 179.457031 86.671875 179.371094 C 86.609375 179.269531 86.644531 179.136719 86.746094 179.074219 L 88.140625 178.234375 L 87.929688 177.382812 L 86.304688 177.296875 C 86.183594 177.289062 86.09375 177.1875 86.097656 177.066406 C 86.105469 176.945312 86.207031 176.851562 86.328125 176.859375 Z M 94.417969 173.664062 C 94.292969 173.445312 94.089844 173.292969 93.847656 173.230469 C 93.601562 173.164062 93.347656 173.203125 93.128906 173.332031 C 92.167969 173.910156 90.492188 175.035156 90.050781 176.070312 C 90.046875 176.074219 90.046875 176.078125 90.042969 176.085938 C 90.140625 176.15625 90.222656 176.246094 90.289062 176.351562 L 91.632812 175.542969 C 91.734375 175.480469 91.867188 175.515625 91.929688 175.617188 C 91.992188 175.722656 91.957031 175.855469 91.855469 175.917969 L 90.457031 176.757812 L 90.667969 177.605469 L 92.296875 177.695312 C 92.417969 177.703125 92.507812 177.804688 92.503906 177.925781 C 92.496094 178.023438 92.429688 178.101562 92.335938 178.125 C 92.316406 178.128906 92.296875 178.132812 92.273438 178.128906 L 90.710938 178.042969 C 90.699219 178.167969 90.667969 178.285156 90.617188 178.394531 C 90.621094 178.398438 90.625 178.402344 90.628906 178.40625 C 91.503906 179.113281 93.511719 179.320312 94.628906 179.382812 C 94.882812 179.398438 95.128906 179.3125 95.316406 179.140625 C 95.5 178.96875 95.605469 178.738281 95.617188 178.488281 C 95.628906 178.027344 95.378906 177.613281 95.109375 177.175781 C 94.914062 176.859375 94.710938 176.527344 94.621094 176.175781 C 94.535156 175.820312 94.558594 175.433594 94.582031 175.058594 C 94.617188 174.546875 94.648438 174.066406 94.417969 173.664062 Z M 78.910156 162.824219 C 78.484375 162.875 78.113281 163.304688 77.816406 164.101562 C 77.476562 165.007812 77.453125 165.652344 77.75 165.96875 C 78.121094 166.359375 78.957031 166.222656 79.277344 166.128906 C 79.410156 165.839844 79.5625 165.554688 79.730469 165.277344 L 78.210938 165.101562 C 78.089844 165.085938 78.003906 164.976562 78.019531 164.859375 C 78.03125 164.738281 78.140625 164.652344 78.261719 164.667969 L 79.175781 164.773438 L 78.507812 164.308594 C 78.410156 164.238281 78.386719 164.101562 78.457031 164.003906 C 78.523438 163.90625 78.660156 163.882812 78.757812 163.949219 L 80.019531 164.835938 C 80.214844 164.558594 80.429688 164.292969 80.660156 164.039062 C 80.332031 163.589844 79.574219 162.75 78.910156 162.824219 Z M 90.082031 175.203125 C 89.683594 175.332031 89.261719 175.457031 88.820312 175.566406 C 88.375 175.675781 87.949219 175.761719 87.53125 175.832031 C 87.800781 175.949219 88.042969 176.085938 88.238281 176.242188 C 88.367188 176.125 88.527344 176.039062 88.707031 175.992188 L 89.121094 175.890625 C 89.300781 175.847656 89.484375 175.851562 89.652344 175.894531 C 89.75 175.664062 89.898438 175.429688 90.082031 175.203125 Z M 90.082031 175.203125 " fill-opacity="1" fill-rule="nonzero"/></g></g></g></svg>